<svg xmlns="http://www.w3.org/2000/svg" width="800" height="1000" viewBox="0 0 800 1000">
  <defs>
    <linearGradient id="bg" x1="0" y1="0" x2="1" y2="1">
      <stop offset="0" stop-color="#E6F0FF"/>
      <stop offset="1" stop-color="#C3D8FA"/>
    </linearGradient>
  </defs>
  <rect width="800" height="1000" fill="url(#bg)"/>
  <circle cx="395.9964109957218" cy="548.1088232435286" r="181.05967538198456" fill="#ffffff" opacity="0.25"/>
  <circle cx="652.647792827338" cy="503.79224674776196" r="104.77620127843693" fill="#ffffff" opacity="0.25"/>
  <circle cx="160.99917612969875" cy="168.51420294493437" r="230.28248456306756" fill="#ffffff" opacity="0.25"/>
  <g transform="translate(430.3944740444422 590.6752140726894) rotate(-25.270549496635795) scale(2.2427600942513286)" opacity="0.3695209568366408">
    <path d="M12 21.35s-8.4-5.62-8.4-11.2C3.6 6.9 6.24 4.4 9 4.4c1.34 0 2.4.7 3 1.72.6-1.02 1.66-1.72 3-1.72 2.76 0 5.4 2.5 5.4 5.75 0 5.58-8.4 11.2-8.4 11.2Z" fill="#ffffff"/></g>
  <g transform="translate(637.3707976844162 670.4621109273285) rotate(-7.9840772319585085) scale(2.50894240004709)" opacity="0.39980253998655824">
    <path d="M12 21.35s-8.4-5.62-8.4-11.2C3.6 6.9 6.24 4.4 9 4.4c1.34 0 2.4.7 3 1.72.6-1.02 1.66-1.72 3-1.72 2.76 0 5.4 2.5 5.4 5.75 0 5.58-8.4 11.2-8.4 11.2Z" fill="#ffffff"/></g>
  <g transform="translate(347.90772473439574 495.4743259958923) rotate(4.905776507221162) scale(2.3268634990090504)" opacity="0.49449771314393726">
    <path d="M12 21.35s-8.4-5.62-8.4-11.2C3.6 6.9 6.24 4.4 9 4.4c1.34 0 2.4.7 3 1.72.6-1.02 1.66-1.72 3-1.72 2.76 0 5.4 2.5 5.4 5.75 0 5.58-8.4 11.2-8.4 11.2Z" fill="#ffffff"/></g>
  <g transform="translate(126.45047218538821 622.5435167644173) rotate(21.455971668474376) scale(1.092924897869428)" opacity="0.5315964217064901">
    <path d="M12 21.35s-8.4-5.62-8.4-11.2C3.6 6.9 6.24 4.4 9 4.4c1.34 0 2.4.7 3 1.72.6-1.02 1.66-1.72 3-1.72 2.76 0 5.4 2.5 5.4 5.75 0 5.58-8.4 11.2-8.4 11.2Z" fill="#ffffff"/></g>
  <g transform="translate(501.58898770809174 252.8865598794073) rotate(-0.9870423702523112) scale(2.5547487170163854)" opacity="0.35269600548781455">
    <path d="M12 21.35s-8.4-5.62-8.4-11.2C3.6 6.9 6.24 4.4 9 4.4c1.34 0 2.4.7 3 1.72.6-1.02 1.66-1.72 3-1.72 2.76 0 5.4 2.5 5.4 5.75 0 5.58-8.4 11.2-8.4 11.2Z" fill="#ffffff"/></g>
  <g transform="translate(674.4444929994643 192.3054503556341) rotate(-26.67058744467795) scale(1.9742238071048632)" opacity="0.5348963430384174">
    <path d="M12 21.35s-8.4-5.62-8.4-11.2C3.6 6.9 6.24 4.4 9 4.4c1.34 0 2.4.7 3 1.72.6-1.02 1.66-1.72 3-1.72 2.76 0 5.4 2.5 5.4 5.75 0 5.58-8.4 11.2-8.4 11.2Z" fill="#ffffff"/></g>
  <g transform="translate(284.019958851859 710.8220042474568) rotate(24.50974208302796) scale(0.8250367194220113)" opacity="0.5116369219496846">
    <path d="M12 21.35s-8.4-5.62-8.4-11.2C3.6 6.9 6.24 4.4 9 4.4c1.34 0 2.4.7 3 1.72.6-1.02 1.66-1.72 3-1.72 2.76 0 5.4 2.5 5.4 5.75 0 5.58-8.4 11.2-8.4 11.2Z" fill="#ffffff"/></g>
  <path d="M684.19557409361 325.5062732915394 L687.0806075329892 332.9249307070859 L694.4992649485357 335.80996414646506 L687.0806075329892 338.69499758584425 L684.19557409361 346.1136550013907 L681.3105406542309 338.69499758584425 L673.8918832386844 335.80996414646506 L681.3105406542309 332.9249307070859 Z" fill="#ffffff" opacity="0.55"/>
  <path d="M177.9000496212393 483.00431997841224 L182.37651611885056 494.51523382941264 L193.88742996985093 498.99170032702386 L182.37651611885056 503.4681668246351 L177.9000496212393 514.9790806756355 L173.42358312362805 503.4681668246351 L161.91266927262768 498.99170032702386 L173.42358312362805 494.51523382941264 Z" fill="#ffffff" opacity="0.55"/>
  <path d="M569.0398437716067 432.32343395100906 L574.029223868642 445.1532684862427 L586.8590584038757 450.14264858327806 L574.029223868642 455.1320286803134 L569.0398437716067 467.96186321554706 L564.0504636745713 455.1320286803134 L551.2206291393377 450.14264858327806 L564.0504636745713 445.1532684862427 Z" fill="#ffffff" opacity="0.55"/>
  <path d="M222.28519164025784 150.07651305245236 L225.47517494218425 158.27932725740595 L233.67798914713785 161.46931055933237 L225.47517494218425 164.6592938612588 L222.28519164025784 172.8621080662124 L219.09520833833142 164.6592938612588 L210.89239413337782 161.46931055933237 L219.09520833833142 158.27932725740595 Z" fill="#ffffff" opacity="0.55"/>
  <path d="M365.63958059996367 808.1255519771948 L371.3771723722294 822.8793593915924 L386.130979786627 828.6169511638582 L371.3771723722294 834.354542936124 L365.63958059996367 849.1083503505215 L359.90198882769795 834.354542936124 L345.14818141330034 828.6169511638582 L359.90198882769795 822.8793593915924 Z" fill="#ffffff" opacity="0.55"/>
  <text x="400" y="485" text-anchor="middle" font-family="Georgia, 'Times New Roman', serif" font-size="200" font-weight="bold" fill="#5C7ED9" opacity="0.9">10</text>
  <text x="400" y="560" text-anchor="middle" font-family="Georgia, serif" font-size="30" letter-spacing="10" fill="#5C7ED9" opacity="0.65">KỶ NIỆM</text>
  <g transform="translate(400 640) rotate(0) scale(1.75)" opacity="0.85">
    <path d="M12 21.35s-8.4-5.62-8.4-11.2C3.6 6.9 6.24 4.4 9 4.4c1.34 0 2.4.7 3 1.72.6-1.02 1.66-1.72 3-1.72 2.76 0 5.4 2.5 5.4 5.75 0 5.58-8.4 11.2-8.4 11.2Z" fill="#5C7ED9"/></g>
</svg>
