<svg xmlns="http://www.w3.org/2000/svg" width="800" height="1000" viewBox="0 0 800 1000">
  <defs>
    <linearGradient id="bg" x1="0" y1="0" x2="1" y2="1">
      <stop offset="0" stop-color="#FFE3EA"/>
      <stop offset="1" stop-color="#FFB8CD"/>
    </linearGradient>
  </defs>
  <rect width="800" height="1000" fill="url(#bg)"/>
  <circle cx="540.9171061404049" cy="781.141907479614" r="210.59254824416712" fill="#ffffff" opacity="0.25"/>
  <circle cx="212.65665616840124" cy="777.2344922088087" r="121.49430986959487" fill="#ffffff" opacity="0.25"/>
  <circle cx="645.4982406832278" cy="757.4850646965206" r="146.58025204902515" fill="#ffffff" opacity="0.25"/>
  <g transform="translate(540.9404438827187 507.32338659465313) rotate(-12.012709211558104) scale(1.9637741795741022)" opacity="0.5929210552712902">
    <path d="M12 21.35s-8.4-5.62-8.4-11.2C3.6 6.9 6.24 4.4 9 4.4c1.34 0 2.4.7 3 1.72.6-1.02 1.66-1.72 3-1.72 2.76 0 5.4 2.5 5.4 5.75 0 5.58-8.4 11.2-8.4 11.2Z" fill="#ffffff"/></g>
  <g transform="translate(584.7382944822311 538.9971760753542) rotate(-21.688149548135698) scale(1.34701809384084)" opacity="0.6124727134825662">
    <path d="M12 21.35s-8.4-5.62-8.4-11.2C3.6 6.9 6.24 4.4 9 4.4c1.34 0 2.4.7 3 1.72.6-1.02 1.66-1.72 3-1.72 2.76 0 5.4 2.5 5.4 5.75 0 5.58-8.4 11.2-8.4 11.2Z" fill="#ffffff"/></g>
  <g transform="translate(501.09845113009214 861.2858182843775) rotate(15.810067551210523) scale(1.9417402509910364)" opacity="0.4817145238863304">
    <path d="M12 21.35s-8.4-5.62-8.4-11.2C3.6 6.9 6.24 4.4 9 4.4c1.34 0 2.4.7 3 1.72.6-1.02 1.66-1.72 3-1.72 2.76 0 5.4 2.5 5.4 5.75 0 5.58-8.4 11.2-8.4 11.2Z" fill="#ffffff"/></g>
  <g transform="translate(356.00907526910305 703.5653282422572) rotate(-14.996376307681203) scale(1.6284797243424691)" opacity="0.5750507035292685">
    <path d="M12 21.35s-8.4-5.62-8.4-11.2C3.6 6.9 6.24 4.4 9 4.4c1.34 0 2.4.7 3 1.72.6-1.02 1.66-1.72 3-1.72 2.76 0 5.4 2.5 5.4 5.75 0 5.58-8.4 11.2-8.4 11.2Z" fill="#ffffff"/></g>
  <g transform="translate(83.19021610543132 899.4585903733969) rotate(-20.10322014335543) scale(1.6849703339976259)" opacity="0.40774728485848755">
    <path d="M12 21.35s-8.4-5.62-8.4-11.2C3.6 6.9 6.24 4.4 9 4.4c1.34 0 2.4.7 3 1.72.6-1.02 1.66-1.72 3-1.72 2.76 0 5.4 2.5 5.4 5.75 0 5.58-8.4 11.2-8.4 11.2Z" fill="#ffffff"/></g>
  <g transform="translate(524.1575756948441 910.1239382103086) rotate(20.037941853515804) scale(1.2525964851956815)" opacity="0.40499013890512287">
    <path d="M12 21.35s-8.4-5.62-8.4-11.2C3.6 6.9 6.24 4.4 9 4.4c1.34 0 2.4.7 3 1.72.6-1.02 1.66-1.72 3-1.72 2.76 0 5.4 2.5 5.4 5.75 0 5.58-8.4 11.2-8.4 11.2Z" fill="#ffffff"/></g>
  <g transform="translate(276.8417464569211 214.58857657387853) rotate(-8.345987470820546) scale(2.2059826102728644)" opacity="0.6209983439417556">
    <path d="M12 21.35s-8.4-5.62-8.4-11.2C3.6 6.9 6.24 4.4 9 4.4c1.34 0 2.4.7 3 1.72.6-1.02 1.66-1.72 3-1.72 2.76 0 5.4 2.5 5.4 5.75 0 5.58-8.4 11.2-8.4 11.2Z" fill="#ffffff"/></g>
  <path d="M630.080232443288 507.02688394254074 L632.7492769986205 513.8901413705386 L639.6125344266184 516.5591859258711 L632.7492769986205 519.2282304812037 L630.080232443288 526.0914879092015 L627.4111878879554 519.2282304812037 L620.5479304599576 516.5591859258711 L627.4111878879554 513.8901413705386 Z" fill="#ffffff" opacity="0.55"/>
  <path d="M74.48395877145231 783.9669740763493 L78.47283892134205 794.22409446178 L88.7299593067728 798.2129746116698 L78.47283892134205 802.2018547615595 L74.48395877145231 812.4589751469903 L70.49507862156257 802.2018547615595 L60.23795823613182 798.2129746116698 L70.49507862156257 794.22409446178 Z" fill="#ffffff" opacity="0.55"/>
  <path d="M293.83364665322006 368.53276570374146 L297.6193873333372 378.26752745261416 L307.3541490822099 382.0532681327313 L297.6193873333372 385.8390088128485 L293.83364665322006 395.5737705617212 L290.0479059731029 385.8390088128485 L280.3131442242302 382.0532681327313 L290.0479059731029 378.26752745261416 Z" fill="#ffffff" opacity="0.55"/>
  <path d="M133.8605361059308 860.625637835823 L136.4785900109634 867.357776448764 L143.2107286239043 869.9758303537965 L136.4785900109634 872.593884258829 L133.8605361059308 879.32602287177 L131.24248220089822 872.593884258829 L124.51034358795732 869.9758303537965 L131.24248220089822 867.357776448764 Z" fill="#ffffff" opacity="0.55"/>
  <path d="M490.7375369593501 436.01298930542544 L494.6633521217294 446.10794258011504 L504.758305396419 450.03375774249434 L494.6633521217294 453.95957290487365 L490.7375369593501 464.05452617956325 L486.8117217969708 453.95957290487365 L476.7167685222812 450.03375774249434 L486.8117217969708 446.10794258011504 Z" fill="#ffffff" opacity="0.55"/>
  <text x="400" y="485" text-anchor="middle" font-family="Georgia, 'Times New Roman', serif" font-size="200" font-weight="bold" fill="#D6336C" opacity="0.9">9</text>
  <text x="400" y="560" text-anchor="middle" font-family="Georgia, serif" font-size="30" letter-spacing="10" fill="#D6336C" opacity="0.65">KỶ NIỆM</text>
  <g transform="translate(400 640) rotate(0) scale(1.75)" opacity="0.85">
    <path d="M12 21.35s-8.4-5.62-8.4-11.2C3.6 6.9 6.24 4.4 9 4.4c1.34 0 2.4.7 3 1.72.6-1.02 1.66-1.72 3-1.72 2.76 0 5.4 2.5 5.4 5.75 0 5.58-8.4 11.2-8.4 11.2Z" fill="#D6336C"/></g>
</svg>
